<!-- Generated by IcoMoon.io -->
<svg version="1.1" xmlns="http://www.w3.org/2000/svg" width="32" height="32" viewBox="0 0 32 32">
<path d="M22.726 1.792c-1.133-0.12-2.271-0.179-3.41-0.175-3.776 0-6.123 2.405-6.123 6.277v2.629h-3.172c-0.149 0-0.292 0.059-0.397 0.164s-0.164 0.248-0.164 0.397v4.323c0 0.149 0.059 0.292 0.164 0.397s0.248 0.164 0.397 0.164h3.172v8.668c0 0.149 0.059 0.292 0.164 0.397s0.248 0.164 0.397 0.164h4.467c0.149 0 0.292-0.059 0.397-0.164s0.164-0.248 0.164-0.397v-8.668h3.162c0.136 0 0.268-0.049 0.37-0.139s0.169-0.214 0.187-0.349l0.558-4.323c0.010-0.079 0.004-0.16-0.019-0.236s-0.063-0.147-0.115-0.207c-0.053-0.060-0.118-0.108-0.19-0.141s-0.152-0.050-0.232-0.050h-3.72v-2.2c0-1.089 0.219-1.544 1.581-1.544h2.289c0.149 0 0.292-0.059 0.397-0.164s0.164-0.248 0.164-0.397v-3.868c0-0.136-0.049-0.268-0.139-0.37s-0.214-0.169-0.349-0.186zM22.091 5.655l-1.729 0.001c-2.422 0-2.703 1.523-2.703 2.667v2.762c0 0.149 0.059 0.291 0.164 0.397s0.248 0.165 0.396 0.165h3.645l-0.414 3.2h-3.229c-0.149 0-0.292 0.059-0.397 0.164s-0.164 0.248-0.164 0.397v8.666h-3.344v-8.666c0-0.149-0.059-0.292-0.164-0.397s-0.248-0.164-0.397-0.164h-3.171v-3.2h3.171c0.149 0 0.292-0.059 0.397-0.164s0.164-0.248 0.164-0.397v-3.191c0-3.227 1.869-5.154 5-5.154 1.133 0 2.156 0.062 2.776 0.116v2.799z"></path>
</svg>
